<svg width="80" height="80" viewBox="0 0 80 80" fill="none" xmlns="http://www.w3.org/2000/svg">
<g clip-path="url(#clip0_32_142)">
<path d="M79.9998 40.0001L69.1716 29.1717C68.8684 28.8684 68.5541 28.5804 68.2307 28.3061C68.2657 27.8851 68.2843 27.4596 68.2843 27.0297V11.7159H52.9705C52.5389 11.7159 52.1116 11.7348 51.6891 11.7699C51.4163 11.448 51.1322 11.1323 50.8285 10.8286L40.0001 0L29.1717 10.8284C28.8684 11.1316 28.5804 11.4459 28.3059 11.7693C27.8849 11.7345 27.4594 11.7157 27.0295 11.7157H11.7159V27.0295C11.7159 27.4594 11.7346 27.8849 11.7695 28.3059C11.4461 28.5802 11.1318 28.8683 10.8286 29.1715L0 40.0001L10.8284 50.8285C11.1316 51.1317 11.4459 51.4198 11.7695 51.6942C11.7345 52.1152 11.7159 52.5408 11.7159 52.9707V68.2844H27.0297C27.4613 68.2844 27.8885 68.2655 28.3112 68.2304C28.584 68.5525 28.8681 68.8681 29.1718 69.1717L40.0002 80.0002L50.8287 69.1717C51.1323 68.8681 51.4163 68.5525 51.6892 68.2304C52.1119 68.2655 52.539 68.2844 52.9707 68.2844H68.2844V52.9705C68.2844 52.5406 68.2657 52.1151 68.2307 51.6939C68.5541 51.4196 68.8684 51.1316 69.1716 50.8283L79.9998 40.0001ZM52.9705 37.6569H45.657L50.8285 32.4854C52.8358 30.4782 55.5044 29.3727 58.343 29.3727C59.9946 29.3727 61.5876 29.7493 63.0272 30.4576C61.5977 34.6399 57.6311 37.6569 52.9705 37.6569ZM63.0274 49.5424C61.5877 50.2507 59.9948 50.6273 58.3432 50.6273C55.5044 50.6273 52.8358 49.5218 50.8287 47.5146L45.6572 42.3431H52.9707C57.6311 42.3433 61.5976 45.3601 63.0274 49.5424ZM49.5375 63.0257C45.3577 61.5946 42.3433 57.6293 42.3433 52.9705V45.6569L47.5147 50.8283C50.8088 54.1226 51.4812 59.0582 49.5375 63.0257ZM30.4626 63.0257C28.519 59.0582 29.1913 54.1226 32.4854 50.8285L37.6569 45.657V52.9707C37.6569 57.6293 34.6424 61.5946 30.4626 63.0257ZM27.0295 42.3433H34.3431L29.1717 47.5147C27.1643 49.5219 24.4956 50.6275 21.657 50.6275C20.0053 50.6275 18.4126 50.2508 16.9729 49.5425C18.4026 45.3601 22.369 42.3433 27.0295 42.3433ZM16.9728 30.4576C18.4124 29.7493 20.0053 29.3727 21.657 29.3727C24.4956 29.3727 27.1643 30.4782 29.1717 32.4854L34.3431 37.6569H27.0295C22.369 37.6569 18.4024 34.6399 16.9728 30.4576ZM29.3727 21.657C29.3727 20.0054 29.7493 18.4126 30.4576 16.9728C34.6399 18.4024 37.6567 22.3689 37.6567 27.0295V34.3431L32.4853 29.1717C30.4782 27.1643 29.3727 24.4956 29.3727 21.657ZM49.5375 16.9745C51.4812 20.942 50.8088 25.8774 47.5147 29.1717L42.3433 34.3431V27.0295C42.3433 22.3707 45.3577 18.4056 49.5375 16.9745ZM63.5979 16.4023V25.6084C61.9364 25.0029 60.1641 24.6863 58.343 24.6863C57.1769 24.6863 56.0307 24.8163 54.9208 25.0684C55.5713 22.2017 55.3912 19.1844 54.3794 16.4023H63.5979ZM40.0001 6.62768L46.5168 13.1443C43.8314 14.3976 41.5674 16.4071 40.0001 18.8978C38.4329 16.407 36.1689 14.3974 33.4835 13.1443L40.0001 6.62768ZM16.4023 16.4023H25.6084C25.0029 18.0638 24.6864 19.836 24.6864 21.657C24.6864 22.8181 24.8152 23.9596 25.0651 25.0651C23.9596 24.815 22.8183 24.6863 21.657 24.6863C19.836 24.6863 18.0638 25.0028 16.4023 25.6084V16.4023ZM6.62768 40.0001L13.1443 33.4835C14.3976 36.1689 16.4071 38.4329 18.8978 40.0001C16.407 41.5672 14.3974 43.8312 13.1443 46.5167L6.62768 40.0001ZM16.4023 63.5979V54.3917C18.0638 54.9972 19.836 55.3137 21.657 55.3137C22.8231 55.3137 23.9693 55.1837 25.0793 54.9316C24.4289 57.7983 24.609 60.8157 25.6209 63.5979H16.4023ZM40.0001 73.3723L33.4835 66.8557C36.1689 65.6024 38.4329 63.5929 40.0001 61.1021C41.5672 63.5929 43.8312 65.6024 46.5168 66.8557L40.0001 73.3723ZM63.5979 63.5979H54.3792C55.391 60.8157 55.5713 57.7984 54.9208 54.9316C56.0307 55.1837 57.1769 55.3137 58.343 55.3137C60.1641 55.3137 61.9364 54.9972 63.5979 54.3916V63.5979ZM61.1022 40.0001C63.593 38.4329 65.6026 36.1689 66.8559 33.4835L73.3725 40.0001L66.8559 46.5167C65.6026 43.8312 63.593 41.5672 61.1022 40.0001Z" fill="#101828"/>
</g>
<defs>
<clipPath id="clip0_32_142">
<rect width="80" height="80" fill="white"/>
</clipPath>
</defs>
</svg>
