<svg width="162" height="42" viewBox="0 0 162 42" fill="none" xmlns="http://www.w3.org/2000/svg">
<path d="M70.16 20.2C70.16 19.2933 69.8667 18.56 69.28 18C68.72 17.44 67.8 17.16 66.52 17.16C65.7733 17.16 65.1333 17.2933 64.6 17.56C64.0667 17.8 63.6533 18.1067 63.36 18.48C63.0933 18.8533 62.96 19.2 62.96 19.52V19.84H57.32C57.2667 19.52 57.24 19.28 57.24 19.12C57.24 17.9733 57.6133 16.9467 58.36 16.04C59.1333 15.1333 60.2 14.4267 61.56 13.92C62.92 13.4133 64.48 13.16 66.24 13.16H67.08C69.96 13.16 72.1467 13.7333 73.64 14.88C75.1333 16 75.88 17.5467 75.88 19.52V28.96C75.88 29.44 75.9867 29.8 76.2 30.04C76.44 30.28 76.72 30.4 77.04 30.4C77.3067 30.4 77.6 30.3467 77.92 30.24C78.24 30.1333 78.4933 30.04 78.68 29.96V33.56C77.6933 34.12 76.52 34.4 75.16 34.4C73.6933 34.4 72.5733 34.1067 71.8 33.52C71.0267 32.9067 70.5733 32.0533 70.44 30.96C68.5733 33.2533 66.28 34.4 63.56 34.4C61.5333 34.4 59.8667 33.9867 58.56 33.16C57.2533 32.3333 56.6 30.76 56.6 28.44C56.6 26.5467 57.1333 25.1067 58.2 24.12C59.2933 23.1067 60.8 22.4267 62.72 22.08C64.64 21.7333 67.12 21.56 70.16 21.56V20.2ZM70.16 24.84C67.6267 24.84 65.7333 25.0933 64.48 25.6C63.2533 26.08 62.64 26.88 62.64 28C62.64 28.88 62.88 29.5067 63.36 29.88C63.8667 30.2267 64.6267 30.4 65.64 30.4C66.3333 30.4 67.0267 30.2133 67.72 29.84C68.4133 29.4667 68.9867 28.9333 69.44 28.24C69.92 27.5467 70.16 26.7733 70.16 25.92V24.84ZM95.5863 29.36C97.4529 29.36 98.8796 29.8933 99.8663 30.96C100.88 32 101.386 33.3733 101.386 35.08C101.386 36.3067 101.04 37.4133 100.346 38.4C99.6529 39.3867 98.7063 40.1467 97.5063 40.68C96.3329 41.24 95.0263 41.52 93.5863 41.52H85.1463C83.5196 41.52 82.1463 41.0667 81.0263 40.16C79.9329 39.28 79.3863 38.0533 79.3863 36.48C79.3863 35.52 79.6663 34.6533 80.2262 33.88C80.8129 33.08 81.5463 32.48 82.4263 32.08C81.8129 31.68 81.3463 31.1867 81.0263 30.6C80.7063 30.0133 80.5463 29.3733 80.5463 28.68C80.5463 27.6933 80.8663 26.84 81.5063 26.12C82.1463 25.3733 82.9729 24.84 83.9863 24.52C83.0796 23.96 82.3729 23.2533 81.8663 22.4C81.3596 21.52 81.1063 20.5867 81.1063 19.6C81.1063 17.7067 81.8396 16.16 83.3063 14.96C84.7996 13.76 86.9729 13.16 89.8263 13.16H90.4663C91.7196 13.16 92.8396 13.32 93.8263 13.64C94.9196 13 95.6796 12.3467 96.1063 11.68C96.5329 11.0133 96.7729 10.4133 96.8263 9.88H101.386C101.386 12.7067 99.9729 14.4667 97.1463 15.16L97.1063 15.28C98.5196 16.48 99.2263 17.92 99.2263 19.6C99.2263 20.7733 98.8929 21.8533 98.2263 22.84C97.5596 23.8 96.6129 24.5733 95.3863 25.16C94.1863 25.72 92.7996 26 91.2263 26H88.4663C87.6663 26 87.0396 26.1733 86.5863 26.52C86.1596 26.8667 85.9463 27.2533 85.9463 27.68C85.9463 28.2133 86.1463 28.6267 86.5463 28.92C86.9729 29.2133 87.6129 29.36 88.4663 29.36H95.5863ZM86.7063 19.6C86.7063 20.5333 87.0396 21.2667 87.7063 21.8C88.3729 22.3067 89.2129 22.56 90.2263 22.56C91.2663 22.56 92.1196 22.3067 92.7863 21.8C93.4529 21.2667 93.7863 20.5333 93.7863 19.6C93.7863 18.6667 93.4529 17.9467 92.7863 17.44C92.1196 16.9067 91.2663 16.64 90.2263 16.64C89.2129 16.64 88.3729 16.9067 87.7063 17.44C87.0396 17.9467 86.7063 18.6667 86.7063 19.6ZM93.4263 37.92C94.1196 37.92 94.7196 37.7067 95.2263 37.28C95.7329 36.88 95.9863 36.4 95.9863 35.84C95.9863 35.3067 95.7729 34.8533 95.3463 34.48C94.9196 34.1333 94.3596 33.96 93.6663 33.96H86.7063C86.1196 33.96 85.6129 34.1467 85.1863 34.52C84.7596 34.92 84.5463 35.3867 84.5463 35.92C84.5463 36.4533 84.7596 36.92 85.1863 37.32C85.6129 37.72 86.1196 37.92 86.7063 37.92H93.4263ZM123.219 24.36C123.219 26.4133 122.779 28.2 121.899 29.72C121.046 31.24 119.859 32.4 118.339 33.2C116.819 34 115.113 34.4 113.219 34.4H112.579C110.686 34.4 108.979 34 107.459 33.2C105.939 32.4 104.739 31.24 103.859 29.72C103.006 28.2 102.579 26.4133 102.579 24.36V23.2C102.579 21.1467 103.006 19.36 103.859 17.84C104.739 16.32 105.939 15.16 107.459 14.36C108.979 13.56 110.686 13.16 112.579 13.16H113.219C115.113 13.16 116.819 13.56 118.339 14.36C119.859 15.16 121.046 16.32 121.899 17.84C122.779 19.36 123.219 21.1467 123.219 23.2V24.36ZM117.299 22.16C117.299 20.5333 116.886 19.2933 116.059 18.44C115.259 17.5867 114.206 17.16 112.899 17.16C111.593 17.16 110.526 17.5867 109.699 18.44C108.899 19.2933 108.499 20.5333 108.499 22.16V25.4C108.499 27.0267 108.899 28.2667 109.699 29.12C110.526 29.9733 111.593 30.4 112.899 30.4C114.206 30.4 115.259 29.9733 116.059 29.12C116.886 28.2667 117.299 27.0267 117.299 25.4V22.16ZM132.562 16.56C134.242 14.2933 136.415 13.16 139.082 13.16C141.162 13.16 142.869 13.72 144.202 14.84C145.562 15.96 146.242 17.5867 146.242 19.72V34H140.402V21C140.402 19.96 140.095 19.1067 139.482 18.44C138.895 17.7467 138.135 17.4 137.202 17.4C136.162 17.4 135.269 17.8 134.522 18.6C133.775 19.3733 133.402 20.32 133.402 21.44V34H127.562V13.56H131.922L132.562 16.56Z" fill="#101828"/>
<path fill-rule="evenodd" clip-rule="evenodd" d="M21.9961 29.1516V26.7268C19.6163 22.9059 15.9815 19.9431 11.666 18.4109C12.2825 23.9118 16.5494 28.3131 21.9961 29.1516ZM21.9961 32.9588C14.144 32.0414 8.02088 25.485 7.81065 17.4609C6.87004 17.3262 5.90836 17.2564 4.93034 17.2564C4.5363 17.2564 4.14493 17.2678 3.75651 17.2901C3.78085 27.7048 11.7849 36.2506 21.9961 37.1726V32.9588ZM25.7804 32.9588V37.1829C36.048 36.3165 44.1138 27.745 44.1382 17.2901C43.7498 17.2678 43.3584 17.2564 42.9644 17.2564C41.9452 17.2564 40.9437 17.3322 39.9654 17.4783C39.7468 25.4945 33.6268 32.042 25.7804 32.9588ZM25.7804 29.1516V26.919C28.1348 23.042 31.7721 20.0258 36.1054 18.4552C35.4711 23.9354 31.2125 28.3154 25.7804 29.1516ZM25.7804 20.8092V14.4496C29.0554 14.0687 32.03 12.7069 34.4007 10.6666C35.1224 11.8484 35.6493 13.1614 35.9369 14.5614C32.0265 15.7628 28.5456 17.9406 25.7804 20.8092ZM21.9961 14.4476V20.6874C19.2238 17.8519 15.7465 15.7048 11.8466 14.5275C12.1364 13.1365 12.6627 11.8318 13.3815 10.6572C15.75 12.6992 18.7226 14.0634 21.9961 14.4476ZM25.7804 10.6427C28.1239 10.2836 30.2494 9.26494 31.9601 7.78284C30.25 6.29857 28.1244 5.27784 25.7804 4.91698V10.6427ZM21.9961 4.91698V10.6401C19.6553 10.2781 17.5328 9.25805 15.8248 7.77555C17.5334 6.29522 19.6559 5.27725 21.9961 4.91698ZM8.14776 13.7261C9.67696 6.45783 16.1433 1 23.8882 1C27.9083 1 31.5838 2.47043 34.4033 4.90124L34.4062 4.89649C35.3936 5.74697 36.2761 6.71517 37.0317 7.7792L37.0275 7.78512C38.2744 9.54239 39.1754 11.5608 39.632 13.7419C40.721 13.59 41.8335 13.5114 42.9644 13.5114C43.2416 13.5114 43.5178 13.5161 43.7927 13.5255L43.79 13.5114C45.1133 13.5563 46.4092 13.7088 47.6692 13.9603C47.8179 15.0332 47.8947 16.1289 47.8947 17.2424V17.2494V17.2564C47.8947 17.4591 47.8922 17.6612 47.8871 17.8626L47.8868 17.8626C47.5569 30.6969 37.0177 41 24.0648 41C24.0256 41 23.9865 40.9999 23.9474 40.9997C23.9083 40.9999 23.8691 41 23.83 41C10.877 41 0.337795 30.6969 0.00795316 17.8626L0.00760925 17.8626C0.00255086 17.6612 0 17.4591 0 17.2564V17.2494V17.2424C0 16.1289 0.0768504 15.0332 0.22555 13.9603C1.48555 13.7088 2.78143 13.5563 4.10469 13.5114L4.10203 13.5255C4.37697 13.5161 4.6531 13.5114 4.93034 13.5114C6.0215 13.5114 7.09552 13.5845 8.14776 13.7261Z" fill="#101828"/>
</svg>
